<svg width="18" height="18" viewBox="0 0 18 18" fill="none" xmlns="http://www.w3.org/2000/svg">
<path d="M9 0C4.0567 0 0 4.0567 0 9C0 10.6315 0.439865 12.2197 1.274 13.6092L0 18L4.39082 16.726C5.78032 17.5601 7.36853 18 9 18C13.9433 18 18 13.9433 18 9C18 4.0567 13.9433 0 9 0ZM14.6269 12.8028L14.2082 13.2215C13.6158 13.8139 12.2533 13.767 11.3779 13.5979C8.46689 13.0357 5.07307 9.74611 4.41856 6.89735C4.09447 5.48616 4.27341 4.25926 4.74142 3.79111L5.16014 3.37239C5.39127 3.1414 5.76672 3.14168 5.99757 3.37239L7.67271 5.04767C7.7845 5.15945 7.84575 5.30763 7.84575 5.46625C7.84575 5.62486 7.7845 5.77318 7.67271 5.88455L7.25414 6.30368C6.79271 6.7662 6.79271 7.51753 7.25414 7.97896L10.0204 10.7088C10.4832 11.1716 11.2321 11.1721 11.6956 10.7088L12.1143 10.2902C12.3305 10.0728 12.7343 10.0721 12.9522 10.2902L14.6269 11.9649C14.8543 12.1914 14.863 12.5666 14.6269 12.8028Z" fill="white"/>
</svg>
