<svg width="18" height="18" viewBox="0 0 18 18" fill="none" xmlns="http://www.w3.org/2000/svg">
<g clip-path="url(#clip0_202_20)">
<path d="M6.71526 16.3843C5.93687 16.3843 5.1357 16.3213 4.32971 16.1949C2.91014 15.9722 1.47313 15.2296 1.0665 15.0073L0 14.4242L1.15466 14.0445C2.41686 13.6295 3.18466 13.372 4.13512 12.9688C3.18343 12.5079 2.44995 11.6789 2.09688 10.6071L1.82826 9.79168L2.04854 9.82533C1.83966 9.6148 1.67473 9.40112 1.54688 9.2068C1.09218 8.51617 0.851441 7.67228 0.902664 6.94911L0.953201 6.23733L1.37933 6.4024C1.19957 6.06292 1.06966 5.70037 0.993302 5.32038C0.807221 4.39369 0.962952 3.40917 1.43193 2.54826L1.80313 1.86683L2.29958 2.46311C3.86966 4.34919 5.85832 5.46801 8.2186 5.79554C8.12219 5.13101 8.19443 4.48968 8.43352 3.91482C8.71188 3.24548 9.20709 2.6779 9.86517 2.27333C10.596 1.82412 11.4824 1.60646 12.3609 1.66043C13.2929 1.71769 14.1391 2.06692 14.8112 2.67103C15.1394 2.58575 15.3813 2.4947 15.7081 2.37165C15.9048 2.29763 16.1278 2.21359 16.4068 2.11746L17.4352 1.76315L16.7646 3.67834C16.8088 3.67463 16.8544 3.67147 16.9021 3.66941L18.0001 3.6197L17.3511 4.50671C17.3139 4.55752 17.3044 4.57194 17.2912 4.59185C17.2389 4.67068 17.1738 4.76873 16.283 5.95828C16.06 6.25614 15.9486 6.6441 15.9693 7.05087C16.0483 8.59664 15.8586 9.9952 15.4053 11.2075C14.9766 12.3545 14.3122 13.3386 13.4308 14.1325C12.3401 15.1147 10.9494 15.7872 9.29704 16.1311C8.48653 16.2997 7.61614 16.3843 6.71526 16.3843Z" fill="white"/>
</g>
<defs>
<clipPath id="clip0_202_20">
<rect width="18.0001" height="18" fill="white"/>
</clipPath>
</defs>
</svg>
