<svg width="32" height="32" viewBox="0 0 32 32" fill="none" xmlns="http://www.w3.org/2000/svg">
<path d="M0 16C0 7.16344 7.16344 0 16 0C24.8366 0 32 7.16344 32 16C32 24.8366 24.8366 32 16 32C7.16344 32 0 24.8366 0 16Z" fill="#D8E6C3"/>
<path d="M19.7503 8.5C18.3003 8.5 16.9087 9.175 16.0003 10.2417C15.092 9.175 13.7003 8.5 12.2503 8.5C9.68366 8.5 7.66699 10.5167 7.66699 13.0833C7.66699 16.2333 10.5003 18.8 14.792 22.7L16.0003 23.7917L17.2087 22.6917C21.5003 18.8 24.3337 16.2333 24.3337 13.0833C24.3337 10.5167 22.317 8.5 19.7503 8.5ZM16.0837 21.4583L16.0003 21.5417L15.917 21.4583C11.9503 17.8667 9.33366 15.4917 9.33366 13.0833C9.33366 11.4167 10.5837 10.1667 12.2503 10.1667C13.5337 10.1667 14.7837 10.9917 15.2253 12.1333H16.7837C17.217 10.9917 18.467 10.1667 19.7503 10.1667C21.417 10.1667 22.667 11.4167 22.667 13.0833C22.667 15.4917 20.0503 17.8667 16.0837 21.4583Z" fill="#7FAD39"/>
</svg>
