<svg width="31" height="31" viewBox="0 0 31 31" fill="none" xmlns="http://www.w3.org/2000/svg">
<path d="M16.5 10C14.76 10 13.09 10.81 12 12.09C10.91 10.81 9.24 10 7.5 10C4.42 10 2 12.42 2 15.5C2 19.28 5.4 22.36 10.55 27.04L12 28.35L13.45 27.03C18.6 22.36 22 19.28 22 15.5C22 12.42 19.58 10 16.5 10ZM12.1 25.55L12 25.65L11.9 25.55C7.14 21.24 4 18.39 4 15.5C4 13.5 5.5 12 7.5 12C9.04 12 10.54 12.99 11.07 14.36H12.94C13.46 12.99 14.96 12 16.5 12C18.5 12 20 13.5 20 15.5C20 18.39 16.86 21.24 12.1 25.55Z" fill="#2A2A2A"/>
<rect x="15.5" y="0.5" width="15" height="15" rx="7.5" fill="#7FAD39"/>
<path d="M23.0582 11.14C24.6182 11.14 25.6182 10.22 25.6182 8.87C25.6182 7.79 24.9682 7.3 24.3882 7.15C24.7582 6.99 25.2782 6.49 25.2782 5.68C25.2782 4.62 24.3282 3.73 22.9782 3.73C21.4982 3.73 20.5282 4.58 20.5282 6.1L22.1282 6.26V6.18C22.1282 5.52 22.4582 5.12 23.0182 5.12C23.4882 5.12 23.8082 5.4 23.8082 5.83C23.8082 6.33 23.4582 6.66 22.9782 6.66H22.7682V7.86H22.9982C23.2882 7.86 24.0082 7.95 24.0082 8.77C24.0082 9.33 23.6782 9.74 23.0182 9.74C22.2482 9.74 22.0082 9.21 21.9882 8.53H20.3682C20.3682 10.23 21.3182 11.14 23.0582 11.14Z" fill="white"/>
<rect x="15.5" y="0.5" width="15" height="15" rx="7.5" stroke="white"/>
</svg>
