<svg width="24" height="24" viewBox="0 0 24 24" fill="none" xmlns="http://www.w3.org/2000/svg">
<path d="M11.9 5C9.191 5 7 7.191 7 9.9C7 13.575 11.9 19 11.9 19C11.9 19 16.8 13.575 16.8 9.9C16.8 7.191 14.609 5 11.9 5ZM8.4 9.9C8.4 7.968 9.968 6.4 11.9 6.4C13.832 6.4 15.4 7.968 15.4 9.9C15.4 11.916 13.384 14.933 11.9 16.816C10.444 14.947 8.4 11.895 8.4 9.9Z" fill="#999999"/>
<path d="M11.9004 11.6499C12.8669 11.6499 13.6504 10.8664 13.6504 9.8999C13.6504 8.9334 12.8669 8.1499 11.9004 8.1499C10.9339 8.1499 10.1504 8.9334 10.1504 9.8999C10.1504 10.8664 10.9339 11.6499 11.9004 11.6499Z" fill="#999999"/>
</svg>
